<svg aria-hidden="true" style="position: absolute; width: 0; height: 0; overflow: hidden;" version="1.1"
   xmlns="http://www.w3.org/2000/svg" xmlns:xlink="http://www.w3.org/1999/xlink">
   <defs>
      <symbol id="arrow-left-circle" viewBox="0 0 32 32">
         <path fill="none" stroke="#fcc50d" style="stroke: var(--color1, #fcc50d)" stroke-linejoin="round"
            stroke-linecap="round" stroke-miterlimit="4" stroke-width="2.4"
            d="M16 29.334c7.364 0 13.334-5.97 13.334-13.334s-5.97-13.334-13.334-13.334c-7.364 0-13.333 5.97-13.333 13.334s5.969 13.334 13.333 13.334z">
         </path>
         <path fill="none" stroke="#fcc50d" style="stroke: var(--color1, #fcc50d)" stroke-linejoin="round"
            stroke-linecap="round" stroke-miterlimit="4" stroke-width="2.4"
            d="M16 10.666l-5.333 5.334 5.333 5.334M21.334 16h-10.667"></path>
      </symbol>
      <symbol id="arrow-right-circle" viewBox="0 0 32 32">
         <path fill="none" stroke="#fcc50d" style="stroke: var(--color1, #fcc50d)" stroke-linejoin="round"
            stroke-linecap="round" stroke-miterlimit="4" stroke-width="2.4"
            d="M16 29.334c7.364 0 13.334-5.97 13.334-13.334s-5.97-13.334-13.334-13.334c-7.364 0-13.333 5.97-13.333 13.334s5.969 13.334 13.333 13.334z">
         </path>
         <path fill="none" stroke="#fcc50d" style="stroke: var(--color1, #fcc50d)" stroke-linejoin="round"
            stroke-linecap="round" stroke-miterlimit="4" stroke-width="2.4"
            d="M16 21.334l5.334-5.334-5.334-5.334M10.667 16h10.666"></path>
      </symbol>
      <symbol id="book-open" viewBox="0 0 32 32">
         <path stroke-linejoin="round" stroke-linecap="round" stroke-miterlimit="4" stroke-width="1.6"
            d="M2.666 4h8c2.946 0 5.334 2.388 5.334 5.334v0 18.666c0-2.209-1.791-4-4-4v0h-9.333v-20zM29.334 4h-8c-2.946 0-5.334 2.388-5.334 5.334v0 18.666c0-2.209 1.791-4 4-4v0h9.334v-20z">
         </path>
      </symbol>
      <symbol id="bx-bus" viewBox="0 0 32 32">
         <path fill="#fcc50d" style="fill: var(--color1, #fcc50d)"
            d="M28.006 10.634v-2.634c-0.003-2.945-2.389-5.331-5.333-5.334h-13.333c-2.945 0.003-5.331 2.389-5.334 5.333v2.664l-0.102 0.006c-0.694 0.052-1.237 0.628-1.237 1.33 0 0 0 0 0 0v-0 2.666c0 0.736 0.597 1.333 1.333 1.334h0.006v8c0 0.98 0.537 1.83 1.328 2.294v1.706c0 0.737 0.597 1.334 1.334 1.334v0h1.333c0.737 0 1.334-0.597 1.334-1.334v0-1.334h13.333v1.334c0 0.737 0.597 1.334 1.334 1.334v0h1.334c0.736-0 1.333-0.597 1.333-1.334v0-1.702c0.802-0.466 1.334-1.32 1.34-2.298v-8.001c0.736-0 1.333-0.597 1.333-1.334v0-2.584c0.002-0.030 0.004-0.065 0.004-0.1 0-0.182-0.037-0.356-0.103-0.515l0.003 0.009c-0.27-0.65-0.846-0.806-1.237-0.842zM25.342 24h-18.67v-6.666h18.668l0.002 6.666zM14.672 9.334v5.333h-8v-5.333h8zM25.339 9.334v5.333h-8v-5.333h8zM9.339 5.334h13.333c0.982 0 1.834 0.54 2.296 1.333h-17.926c0.467-0.8 1.319-1.329 2.296-1.333h0.001z">
         </path>
         <path fill="#fcc50d" style="fill: var(--color1, #fcc50d)"
            d="M10 22.666c1.105 0 2-0.895 2-2s-0.895-2-2-2v0c-1.105 0-2 0.895-2 2s0.895 2 2 2v0zM22 22.666c1.105 0 2-0.895 2-2s-0.895-2-2-2v0c-1.105 0-2 0.895-2 2s0.895 2 2 2v0z">
         </path>
      </symbol>
      <symbol id="bx-health" viewBox="0 0 32 32">
         <path fill="#fcc50d" style="fill: var(--color1, #fcc50d)"
            d="M26.198 7.048l-7.531 4.35v-8.698h-5.334v8.698l-7.532-4.35-2.667 4.62 7.531 4.348-7.531 4.348 2.667 4.62 7.532-4.348v8.698h5.333v-8.698l7.533 4.348 2.666-4.62-7.53-4.348 7.53-4.348-2.667-4.62z">
         </path>
      </symbol>
      <symbol id="calendar-2" viewBox="0 0 32 32">
         <path fill="none" stroke="#fcc50d" style="stroke: var(--color1, #fcc50d)" stroke-linejoin="miter"
            stroke-linecap="square" stroke-miterlimit="10" stroke-width="1.6"
            d="M1.334 12h29.333M28 4h-24c-1.473 0-2.666 1.194-2.666 2.666v0 21.334c0 1.473 1.194 2.666 2.666 2.666v0h24c1.473 0 2.666-1.194 2.666-2.666v0-21.334c0-1.473-1.194-2.666-2.666-2.666v0zM8 1.334l-0.002 5.333M24 1.334l-0.002 5.333">
         </path>
         <path fill="#fcc50d" style="fill: var(--color1, #fcc50d)"
            d="M20.8 13.2c-4.638 0-8.4 3.762-8.4 8.4s3.762 8.4 8.4 8.4 8.4-3.762 8.4-8.4-3.762-8.4-8.4-8.4zM20.8 28.575c-3.852-0-6.975-3.123-6.975-6.975v-0c0-3.852 3.123-6.975 6.975-6.975h0c3.852 0 6.975 3.123 6.975 6.975v0c-0 3.852-3.123 6.975-6.975 6.975h-0zM21.694 21.165l-0.476-0.11v-2.518c0.712 0.098 1.153 0.544 1.228 1.091 0.009 0.073 0.072 0.13 0.147 0.13 0 0 0.001 0 0.001 0h0.842c0.084-0.001 0.151-0.068 0.151-0.152 0-0.005-0-0.009-0.001-0.013l0 0.001c-0.114-1.168-1.077-1.918-2.361-2.048v-0.613c-0-0.083-0.068-0.15-0.15-0.15 0 0 0 0 0 0h-0.526c0 0 0 0 0 0-0.083 0-0.15 0.067-0.15 0.15v0.618c-1.327 0.13-2.366 0.863-2.366 2.232 0 1.267 0.934 1.878 1.914 2.113l0.462 0.118v2.675c-0.828-0.11-1.294-0.553-1.389-1.15-0.013-0.070-0.074-0.123-0.147-0.123-0 0-0.001 0-0.001 0h-0.866c-0 0-0 0-0.001 0-0.083 0-0.15 0.067-0.15 0.15 0 0.005 0 0.009 0.001 0.013l-0-0.001c0.085 1.031 0.866 1.98 2.536 2.102v0.589c0 0.082 0.066 0.15 0.15 0.15h0.532c0.083-0 0.15-0.068 0.15-0.151 0-0 0-0.001 0-0.001v0l-0.004-0.594c1.468-0.13 2.518-0.915 2.518-2.326-0.002-1.301-0.829-1.882-2.044-2.182zM20.408 20.861c-0.115-0.032-0.208-0.064-0.299-0.1l0.018 0.007c-0.634-0.229-0.928-0.598-0.928-1.074 0-0.68 0.515-1.068 1.209-1.157v2.326zM21.218 24.694v-2.506c0.058 0.016 0.11 0.030 0.165 0.041 0.886 0.27 1.185 0.645 1.185 1.221 0 0.733-0.551 1.174-1.35 1.245z">
         </path>
      </symbol>
      <symbol id="customer-service" viewBox="0 0 32 32">
         <path fill="#fcc50d" style="fill: var(--color1, #fcc50d)"
            d="M16 4c-6.628 0-12 5.372-12 12v11.25c0 0.415 0.334 0.75 0.75 0.75h5.75c1.103 0 2-0.897 2-2v-6.5c0-1.103-0.897-2-2-2h-4.25v-1.5c0.001-5.384 4.366-9.75 9.75-9.75s9.75 4.366 9.75 9.75v1.5h-4.25c-1.104 0.001-1.999 0.896-2 2v6.5c0 1.103 0.897 2 2 2h5.75c0.415 0 0.75-0.334 0.75-0.75v-11.25c0-6.628-5.372-12-12-12zM10.25 19.75v6h-4v-6h4zM25.75 25.75h-4v-6h4v6z">
         </path>
      </symbol>
      <symbol id="dollar-circle" viewBox="0 0 32 32">
         <path fill="#fcc50d" style="fill: var(--color1, #fcc50d)"
            d="M16 2c-7.731 0-14 6.269-14 14s6.269 14 14 14 14-6.269 14-14-6.269-14-14-14zM16 27.625c-6.418 0-11.625-5.206-11.625-11.625s5.206-11.625 11.625-11.625 11.625 5.206 11.625 11.625-5.206 11.625-11.625 11.625zM17.49 15.275l-0.794-0.184v-4.198c1.188 0.162 1.922 0.906 2.047 1.819 0.016 0.125 0.122 0.216 0.246 0.216h1.403c0.147 0 0.262-0.129 0.25-0.276-0.191-1.946-1.794-3.197-3.934-3.412v-1.022c-0-0.138-0.112-0.25-0.25-0.25 0 0 0 0 0 0h-0.878c0 0 0 0 0 0-0.138 0-0.25 0.112-0.25 0.25v1.032c-2.213 0.215-3.944 1.437-3.944 3.718 0 2.112 1.557 3.131 3.191 3.522l0.772 0.197v4.46c-1.382-0.184-2.157-0.922-2.316-1.916-0.021-0.118-0.123-0.206-0.245-0.206-0.001 0-0.001 0-0.002 0h-1.443c-0 0-0.001 0-0.001 0-0.138 0-0.25 0.112-0.25 0.25 0 0.008 0 0.015 0.001 0.023l-0-0.001c0.141 1.719 1.444 3.3 4.225 3.503v0.982c0 0.137 0.113 0.25 0.25 0.25h0.888c0.137 0 0.25-0.112 0.25-0.253l-0.006-0.991c2.447-0.216 4.197-1.525 4.197-3.874-0.003-2.169-1.381-3.138-3.406-3.638zM15.346 14.769c-0.191-0.053-0.347-0.106-0.499-0.167l0.031 0.011c-1.056-0.382-1.547-0.997-1.547-1.791 0-1.134 0.859-1.781 2.016-1.928v3.875zM16.697 21.156v-4.178c0.097 0.028 0.184 0.050 0.275 0.069 1.478 0.45 1.975 1.074 1.975 2.034 0 1.222-0.919 1.956-2.25 2.074z">
         </path>
      </symbol>
      <symbol id="fluent_sim-16-regular" viewBox="0 0 32 32">
         <path fill="#fcc50d" style="fill: var(--color1, #fcc50d)"
            d="M10 19c0-1.657 1.343-3 3-3v0h6c1.657 0 3 1.343 3 3v0 4c0 1.657-1.343 3-3 3v0h-6c-1.657 0-3-1.343-3-3v0-4zM13 18c-0.552 0-1 0.448-1 1v0 4c0 0.552 0.448 1 1 1v0h3v-6h-3zM18 18v6h1c0.552 0 1-0.448 1-1v0-4c0-0.552-0.448-1-1-1v0h-1zM6 7c0-2.761 2.239-5 5-5v0h6.344c1.38 0 2.63 0.56 3.534 1.464l3.658 3.658c0.904 0.905 1.464 2.154 1.464 3.534v14.344c0 2.761-2.239 5-5 5v0h-10c-2.761 0-5-2.239-5-5v0-18zM11 4c-1.657 0-3 1.343-3 3v0 18c0 1.657 1.343 3 3 3v0h10c1.657 0 3-1.343 3-3v0-14.344c-0.001-0.828-0.337-1.578-0.88-2.12l-0-0-3.654-3.658c-0.543-0.543-1.293-0.878-2.121-0.878-0 0-0.001 0-0.001 0h-6.344z">
         </path>
      </symbol>
      <symbol id="grommet-icons_money" viewBox="0 0 32 32">
         <path fill="none" stroke="#fcc50d" style="stroke: var(--color1, #fcc50d)" stroke-linejoin="miter"
            stroke-linecap="butt" stroke-miterlimit="4" stroke-width="2.1336"
            d="M21.333 21.334c0-1.474-4.178-2.667-9.333-2.667M21.333 21.334c0 1.473-4.178 2.666-9.333 2.666s-9.334-1.194-9.334-2.666M21.334 21.334v6.582c0 1.518-4.179 2.75-9.334 2.75s-9.334-1.23-9.334-2.75v-6.582M21.334 21.334c5.098 0 9.333-1.316 9.333-2.667v-13.333M12 18.666c-5.155 0-9.334 1.194-9.334 2.667M12 18.666c-5.891 0-10.667-1.316-10.667-2.666v-6.666M12 6.666c-5.891 0-10.667 1.194-10.667 2.667M1.333 9.334c0.001 1.473 4.776 2.666 10.667 2.666 0 1.35 4.338 2.666 9.436 2.666 5.097 0 9.23-1.316 9.23-2.666M30.666 5.334c0-1.474-4.133-2.667-9.23-2.667s-9.231 1.194-9.231 2.667M30.666 5.334c0 1.473-4.133 2.666-9.23 2.666s-9.231-1.194-9.231-2.666M12.205 5.334v13.554">
         </path>
      </symbol>
      <symbol id="check-boxdefault" viewBox="0 0 32 32">
         <path fill="none" stroke="#f9f9f9" style="stroke: var(--color3, #f9f9f9)" stroke-linejoin="round"
            stroke-linecap="round" stroke-miterlimit="4" stroke-width="2.6667"
            d="M25.333 4h-18.667c-1.473 0-2.667 1.194-2.667 2.667v0 18.667c0 1.473 1.194 2.667 2.667 2.667v0h18.667c1.473 0 2.667-1.194 2.667-2.667v0-18.667c0-1.473-1.194-2.667-2.667-2.667v0z">
         </path>
      </symbol>
      <symbol id="check-boxhover" viewBox="0 0 32 32">
         <path fill="none" stroke="#f9f9f9" style="stroke: var(--color3, #f9f9f9)" stroke-linejoin="round"
            stroke-linecap="round" stroke-miterlimit="4" stroke-width="2.6667" d="M12 14.667l4 4 13.333-13.333"></path>
         <path fill="none" stroke="#f9f9f9" style="stroke: var(--color3, #f9f9f9)" stroke-linejoin="round"
            stroke-linecap="round" stroke-miterlimit="4" stroke-width="2.6667"
            d="M28 16v9.333c0 1.473-1.194 2.667-2.667 2.667v0h-18.667c-1.473 0-2.667-1.194-2.667-2.667v0-18.667c0-1.473 1.194-2.667 2.667-2.667v0h14.667">
         </path>
      </symbol>
      <symbol id="chevron-down" viewBox="0 0 32 32">
         <path fill="none" stroke="#f9f9f9" style="stroke: var(--color3, #f9f9f9)" stroke-linejoin="round"
            stroke-linecap="round" stroke-miterlimit="4" stroke-width="2" d="M8 12l8 8 8-8"></path>
      </symbol>
      <symbol id="chevron-left" viewBox="0 0 32 32">
         <path stroke-linejoin="round" stroke-linecap="round" stroke-miterlimit="4" stroke-width="1.6"
            d="M20 24l-8-8 8-8"></path>
      </symbol>
      <symbol id="chevron-right" viewBox="0 0 32 32">
         <path stroke-linejoin="round" stroke-linecap="round" stroke-miterlimit="4" stroke-width="1.6"
            d="M12 24l8-8-8-8"></path>
      </symbol>
      <symbol id="info" viewBox="0 0 32 32">
         <path stroke-linejoin="round" stroke-linecap="round" stroke-miterlimit="4" stroke-width="1.6"
            d="M16 29.334c7.364 0 13.334-5.97 13.334-13.334s-5.97-13.334-13.334-13.334c-7.364 0-13.333 5.97-13.333 13.334s5.969 13.334 13.333 13.334zM16 21.334v-5.334M16 10.666h0.014">
         </path>
      </symbol>
      <symbol id="mail" viewBox="0 0 32 32">
         <path stroke-linejoin="round" stroke-linecap="round" stroke-miterlimit="4" stroke-width="1.6"
            d="M5.334 5.334h21.333c1.467 0 2.667 1.2 2.667 2.666v16c0 1.466-1.2 2.666-2.667 2.666h-21.332c-1.471-0.004-2.663-1.195-2.667-2.666v-16c0-1.466 1.2-2.666 2.666-2.666z">
         </path>
         <path stroke-linejoin="round" stroke-linecap="round" stroke-miterlimit="4" stroke-width="1.6"
            d="M29.334 8l-13.334 9.334-13.333-9.334"></path>
      </symbol>
      <symbol id="map-pin" viewBox="0 0 30 32">
         <path fill="none" stroke="#fcc50d" style="stroke: var(--color1, #fcc50d)" stroke-linejoin="round"
            stroke-linecap="round" stroke-miterlimit="4" stroke-width="2.4"
            d="M25.9 13.334c0 9.333-11.1 17.333-11.1 17.333s-11.1-8-11.1-17.333c0-3.183 1.17-6.235 3.251-8.486s4.905-3.514 7.849-3.514 5.767 1.264 7.849 3.514c2.082 2.25 3.251 5.302 3.251 8.486z">
         </path>
         <path fill="none" stroke="#fcc50d" style="stroke: var(--color1, #fcc50d)" stroke-linejoin="round"
            stroke-linecap="round" stroke-miterlimit="4" stroke-width="2.4"
            d="M14.8 17.334c2.043 0 3.7-1.791 3.7-4s-1.656-4-3.7-4c-2.043 0-3.7 1.79-3.7 4s1.656 4 3.7 4z"></path>
      </symbol>
      <symbol id="message-square" viewBox="0 0 32 32">
         <path fill="none" stroke="#fcc50d" style="stroke: var(--color1, #fcc50d)" stroke-linejoin="round"
            stroke-linecap="round" stroke-miterlimit="4" stroke-width="3.2"
            d="M28 20c0 1.473-1.194 2.667-2.667 2.667v0h-16l-5.333 5.333v-21.333c0-1.473 1.194-2.667 2.667-2.667v0h18.667c1.473 0 2.667 1.194 2.667 2.667v0 13.333z">
         </path>
      </symbol>
      <symbol id="minus-circle" viewBox="0 0 32 32">
         <path fill="none" stroke="#fcc50d" style="stroke: var(--color1, #fcc50d)" stroke-linejoin="round"
            stroke-linecap="round" stroke-miterlimit="4" stroke-width="3.2"
            d="M16 29.334c7.364 0 13.334-5.97 13.334-13.334s-5.97-13.334-13.334-13.334c-7.364 0-13.333 5.97-13.333 13.334s5.969 13.334 13.333 13.334zM10.667 16h10.666">
         </path>
      </symbol>
      <symbol id="plus-circle" viewBox="0 0 32 32">
         <path fill="none" stroke="#fcc50d" style="stroke: var(--color1, #fcc50d)" stroke-linejoin="round"
            stroke-linecap="round" stroke-miterlimit="4" stroke-width="3.2"
            d="M16 29.334c7.364 0 13.334-5.97 13.334-13.334s-5.97-13.334-13.334-13.334c-7.364 0-13.333 5.97-13.333 13.334s5.969 13.334 13.333 13.334zM16 10.666v10.667M10.667 16h10.666">
         </path>
      </symbol>
      <symbol id="shield" viewBox="0 0 32 32">
         <path stroke-linejoin="round" stroke-linecap="round" stroke-miterlimit="4" stroke-width="1.6"
            d="M16 29.334s10.666-5.334 10.666-13.334v-9.334l-10.666-4-10.667 4v9.334c0 8 10.667 13.334 10.667 13.334z">
         </path>
      </symbol>
      <symbol id="user" viewBox="0 0 32 32">
         <path fill="#fcc50d" style="fill: var(--color1, #fcc50d)"
            d="M26.828 23.862c-0.622-1.452-1.472-2.692-2.518-3.734l-0-0c-1.043-1.046-2.283-1.895-3.658-2.489l-0.076-0.029c-0.013-0.006-0.025-0.010-0.038-0.016 1.956-1.421 3.213-3.701 3.213-6.275 0-0.002 0-0.004 0-0.007v0c0-0 0-0.001 0-0.002 0-4.28-3.469-7.749-7.749-7.749-0.001 0-0.001 0-0.002 0h0c-0 0-0.001 0-0.001 0-4.28 0-7.749 3.469-7.749 7.749 0 0.001 0 0.001 0 0.002v-0c0 0.001 0 0.003 0 0.005 0 2.575 1.257 4.856 3.19 6.264l0.022 0.015c-0.012 0.006-0.025 0.010-0.038 0.016-1.453 0.621-2.692 1.471-3.734 2.518l-0 0c-1.045 1.043-1.895 2.283-2.489 3.658l-0.029 0.076c-0.555 1.272-0.891 2.75-0.921 4.304l-0 0.012c-0 0.002-0 0.004-0 0.006 0 0.138 0.112 0.25 0.25 0.25h1.876c0 0 0 0 0 0 0.136 0 0.246-0.109 0.25-0.244v-0c0.061-2.5 1.099-4.747 2.744-6.384l0-0c1.687-1.697 4.024-2.747 6.605-2.747 0.009 0 0.019 0 0.028 0h-0.001c2.506 0 4.858 0.975 6.63 2.747 1.645 1.637 2.683 3.884 2.744 6.373l0 0.011c0.002 0.135 0.112 0.244 0.248 0.244 0.001 0 0.001 0 0.002 0h1.875c0 0 0.001 0 0.001 0 0.138 0 0.25-0.112 0.25-0.25 0-0.002-0-0.005-0-0.007v0c-0.032-1.567-0.368-3.047-0.951-4.395l0.029 0.075zM16 16.688c-1.434 0-2.784-0.559-3.8-1.574-0.973-0.967-1.575-2.307-1.575-3.787 0-0.005 0-0.009 0-0.014v0.001c0-1.434 0.56-2.784 1.576-3.8 0.968-0.974 2.308-1.578 3.789-1.578 0.003 0 0.007 0 0.010 0h-0.001c1.434 0 2.784 0.56 3.8 1.576 0.973 0.967 1.574 2.307 1.574 3.786 0 0.005 0 0.010-0 0.014v-0.001c0 1.434-0.56 2.784-1.575 3.8-0.967 0.973-2.307 1.575-3.787 1.575-0.004 0-0.009 0-0.013 0h0.001z">
         </path>
      </symbol>
      <symbol id="work-alt" viewBox="0 0 32 32">
         <path fill="#fcc50d" style="fill: var(--color1, #fcc50d)"
            d="M22.666 9.334c0-2.209-1.791-4-4-4v0h-5.333c-2.209 0-4 1.791-4 4v0h-1.334c-2.209 0-4 1.791-4 4v0 10.666c0 2.209 1.791 4 4 4v0h16c2.209 0 4-1.791 4-4v0-10.666c0-2.209-1.791-4-4-4v0h-1.334zM18.666 8h-5.333c-0.737 0-1.334 0.597-1.334 1.334v0h8c0-0.737-0.597-1.334-1.334-1.334v0zM8 12h16c0.737 0 1.334 0.597 1.334 1.334v0 10.666c0 0.737-0.597 1.334-1.334 1.334v0h-16c-0.737 0-1.334-0.597-1.334-1.334v0-10.666c0-0.737 0.597-1.334 1.334-1.334v0z">
         </path>
      </symbol>
      <symbol id="eye-off-active" viewBox="0 0 24 24">
         <path fill="none" stroke="#000" style="stroke: var(--color1, #000)" stroke-linejoin="round"
            d="M11.96 11.96A6.713 6.713 0 0 1 8 13.333C3.333 13.333.667 8 .667 8A12.3 12.3 0 0 1 4.04 4.04M6.6 2.827a6.08 6.08 0 0 1 1.4-.16C12.667 2.667 15.333 8 15.333 8c-.404.757-.887 1.47-1.44 2.127m-4.48-.714a2 2 0 1 1-2.826-2.826M.667.667l14.666 14.666" />
         <defs>
            <clipPath id="eye-off-active-clip">
               <path fill="#fff" d="M0 0h16v16H0z" />
            </clipPath>
         </defs>
      </symbol>

      <!-- Eye Off -->
      <symbol id="eye-off" fill="none">
         <g stroke="#000000" stroke-linecap="round" stroke-linejoin="round" clip-path="url(#a)">
            <path
               d="M11.96 11.96A6.713 6.713 0 0 1 8 13.333C3.333 13.333.667 8 .667 8A12.3 12.3 0 0 1 4.04 4.04M6.6 2.827a6.08 6.08 0 0 1 1.4-.16C12.667 2.667 15.333 8 15.333 8c-.404.757-.887 1.47-1.44 2.127m-4.48-.714a2 2 0 1 1-2.826-2.826M.667.667l14.666 14.666" />
         </g>
      </symbol>

      <!-- Eye On -->
      <symbol id="eye-on" viewBox="0 0 24 22">
         <g stroke="#000" stroke-linecap="round" stroke-linejoin="round" filter="url(#eye-on-filter)">
            <path d="M4.667 8S7.333 2.667 12 2.667 19.333 8 19.333 8 16.667 13.333 12 13.333 4.667 8 4.667 8Z" />
            <path d="M12 10a2 2 0 1 0 0-4 2 2 0 0 0 0 4Z" />
         </g>
      </symbol>

      <!-- Check Circle -->
      <symbol id="check-circle" viewBox="0 0 24 24">
         <path d="M14.667 7.387V8a6.667 6.667 0 1 1-3.954-6.093" />
         <path d="M14.667 2.667 8 9.34l-2-2" />
      </symbol>

      <!-- Alert Circle -->
      <symbol id="alert-circle" viewBox="0 0 24 24">
         <path d="M8 14.667A6.667 6.667 0 1 0 8 1.333a6.667 6.667 0 0 0 0 13.334ZM8 5.333V8M8 10.667h.007" />
      </symbol>

      <!-- Checkbox -->
      <symbol id="checkbox" viewBox="0 0 24 24">
         <path stroke="#FF0000" stroke-linecap="round" stroke-linejoin="round" stroke-width="2"
            d="M19.5 3h-14a2 2 0 0 0-2 2v14a2 2 0 0 0 2 2h14a2 2 0 0 0 2-2V5a2 2 0 0 0-2-2Z" />
      </symbol>

      <!-- Checked Checkbox -->
      <symbol id="checkbox-checked" viewBox="0 0 24 24">
         <path stroke="#F9F9F9" stroke-linecap="round" stroke-linejoin="round" stroke-width="2" d="m9.5 11 3 3 10-10" />
         <path stroke="#F9F9F9" stroke-linecap="round" stroke-linejoin="round" stroke-width="2"
            d="M21.5 12v7a2 2 0 0 1-2 2h-14a2 2 0 0 1-2-2V5a2 2 0 0 1 2-2h11" />
      </symbol>
   </defs>
</svg>
<svg aria-hidden="true" style="position: absolute; width: 0; height: 0; overflow: hidden;" version="1.1" xmlns="http://www.w3.org/2000/svg" xmlns:xlink="http://www.w3.org/1999/xlink">
<defs>
<symbol id="arrow-left-circle" viewBox="0 0 32 32">
<path fill="none" stroke="#fcc50d" style="stroke: var(--color1, #fcc50d)" stroke-linejoin="round" stroke-linecap="round" stroke-miterlimit="4" stroke-width="2.4" d="M16 29.334c7.364 0 13.334-5.97 13.334-13.334s-5.97-13.334-13.334-13.334c-7.364 0-13.333 5.97-13.333 13.334s5.969 13.334 13.333 13.334z"></path>
<path fill="none" stroke="#fcc50d" style="stroke: var(--color1, #fcc50d)" stroke-linejoin="round" stroke-linecap="round" stroke-miterlimit="4" stroke-width="2.4" d="M16 10.666l-5.333 5.334 5.333 5.334M21.334 16h-10.667"></path>
</symbol>
<symbol id="arrow-right-circle" viewBox="0 0 32 32">
<path fill="none" stroke="#fcc50d" style="stroke: var(--color1, #fcc50d)" stroke-linejoin="round" stroke-linecap="round" stroke-miterlimit="4" stroke-width="2.4" d="M16 29.334c7.364 0 13.334-5.97 13.334-13.334s-5.97-13.334-13.334-13.334c-7.364 0-13.333 5.97-13.333 13.334s5.969 13.334 13.333 13.334z"></path>
<path fill="none" stroke="#fcc50d" style="stroke: var(--color1, #fcc50d)" stroke-linejoin="round" stroke-linecap="round" stroke-miterlimit="4" stroke-width="2.4" d="M16 21.334l5.334-5.334-5.334-5.334M10.667 16h10.666"></path>
</symbol>
<symbol id="book-open" viewBox="0 0 32 32">
<path stroke-linejoin="round" stroke-linecap="round" stroke-miterlimit="4" stroke-width="1.6" d="M2.666 4h8c2.946 0 5.334 2.388 5.334 5.334v0 18.666c0-2.209-1.791-4-4-4v0h-9.333v-20zM29.334 4h-8c-2.946 0-5.334 2.388-5.334 5.334v0 18.666c0-2.209 1.791-4 4-4v0h9.334v-20z"></path>
</symbol>
<symbol id="bx-bus" viewBox="0 0 32 32">
<path fill="#fcc50d" style="fill: var(--color1, #fcc50d)" d="M28.006 10.634v-2.634c-0.003-2.945-2.389-5.331-5.333-5.334h-13.333c-2.945 0.003-5.331 2.389-5.334 5.333v2.664l-0.102 0.006c-0.694 0.052-1.237 0.628-1.237 1.33 0 0 0 0 0 0v-0 2.666c0 0.736 0.597 1.333 1.333 1.334h0.006v8c0 0.98 0.537 1.83 1.328 2.294v1.706c0 0.737 0.597 1.334 1.334 1.334v0h1.333c0.737 0 1.334-0.597 1.334-1.334v0-1.334h13.333v1.334c0 0.737 0.597 1.334 1.334 1.334v0h1.334c0.736-0 1.333-0.597 1.333-1.334v0-1.702c0.802-0.466 1.334-1.32 1.34-2.298v-8.001c0.736-0 1.333-0.597 1.333-1.334v0-2.584c0.002-0.030 0.004-0.065 0.004-0.1 0-0.182-0.037-0.356-0.103-0.515l0.003 0.009c-0.27-0.65-0.846-0.806-1.237-0.842zM25.342 24h-18.67v-6.666h18.668l0.002 6.666zM14.672 9.334v5.333h-8v-5.333h8zM25.339 9.334v5.333h-8v-5.333h8zM9.339 5.334h13.333c0.982 0 1.834 0.54 2.296 1.333h-17.926c0.467-0.8 1.319-1.329 2.296-1.333h0.001z"></path>
<path fill="#fcc50d" style="fill: var(--color1, #fcc50d)" d="M10 22.666c1.105 0 2-0.895 2-2s-0.895-2-2-2v0c-1.105 0-2 0.895-2 2s0.895 2 2 2v0zM22 22.666c1.105 0 2-0.895 2-2s-0.895-2-2-2v0c-1.105 0-2 0.895-2 2s0.895 2 2 2v0z"></path>
</symbol>
<symbol id="bx-health" viewBox="0 0 32 32">
<path fill="#fcc50d" style="fill: var(--color1, #fcc50d)" d="M26.198 7.048l-7.531 4.35v-8.698h-5.334v8.698l-7.532-4.35-2.667 4.62 7.531 4.348-7.531 4.348 2.667 4.62 7.532-4.348v8.698h5.333v-8.698l7.533 4.348 2.666-4.62-7.53-4.348 7.53-4.348-2.667-4.62z"></path>
</symbol>
<symbol id="calendar-2" viewBox="0 0 32 32">
<path fill="none" stroke="#fcc50d" style="stroke: var(--color1, #fcc50d)" stroke-linejoin="miter" stroke-linecap="square" stroke-miterlimit="10" stroke-width="1.6" d="M1.334 12h29.333M28 4h-24c-1.473 0-2.666 1.194-2.666 2.666v0 21.334c0 1.473 1.194 2.666 2.666 2.666v0h24c1.473 0 2.666-1.194 2.666-2.666v0-21.334c0-1.473-1.194-2.666-2.666-2.666v0zM8 1.334l-0.002 5.333M24 1.334l-0.002 5.333"></path>
<path fill="#fcc50d" style="fill: var(--color1, #fcc50d)" d="M20.8 13.2c-4.638 0-8.4 3.762-8.4 8.4s3.762 8.4 8.4 8.4 8.4-3.762 8.4-8.4-3.762-8.4-8.4-8.4zM20.8 28.575c-3.852-0-6.975-3.123-6.975-6.975v-0c0-3.852 3.123-6.975 6.975-6.975h0c3.852 0 6.975 3.123 6.975 6.975v0c-0 3.852-3.123 6.975-6.975 6.975h-0zM21.694 21.165l-0.476-0.11v-2.518c0.712 0.098 1.153 0.544 1.228 1.091 0.009 0.073 0.072 0.13 0.147 0.13 0 0 0.001 0 0.001 0h0.842c0.084-0.001 0.151-0.068 0.151-0.152 0-0.005-0-0.009-0.001-0.013l0 0.001c-0.114-1.168-1.077-1.918-2.361-2.048v-0.613c-0-0.083-0.068-0.15-0.15-0.15 0 0 0 0 0 0h-0.526c0 0 0 0 0 0-0.083 0-0.15 0.067-0.15 0.15v0.618c-1.327 0.13-2.366 0.863-2.366 2.232 0 1.267 0.934 1.878 1.914 2.113l0.462 0.118v2.675c-0.828-0.11-1.294-0.553-1.389-1.15-0.013-0.070-0.074-0.123-0.147-0.123-0 0-0.001 0-0.001 0h-0.866c-0 0-0 0-0.001 0-0.083 0-0.15 0.067-0.15 0.15 0 0.005 0 0.009 0.001 0.013l-0-0.001c0.085 1.031 0.866 1.98 2.536 2.102v0.589c0 0.082 0.066 0.15 0.15 0.15h0.532c0.083-0 0.15-0.068 0.15-0.151 0-0 0-0.001 0-0.001v0l-0.004-0.594c1.468-0.13 2.518-0.915 2.518-2.326-0.002-1.301-0.829-1.882-2.044-2.182zM20.408 20.861c-0.115-0.032-0.208-0.064-0.299-0.1l0.018 0.007c-0.634-0.229-0.928-0.598-0.928-1.074 0-0.68 0.515-1.068 1.209-1.157v2.326zM21.218 24.694v-2.506c0.058 0.016 0.11 0.030 0.165 0.041 0.886 0.27 1.185 0.645 1.185 1.221 0 0.733-0.551 1.174-1.35 1.245z"></path>
</symbol>
<symbol id="customer-service" viewBox="0 0 32 32">
<path fill="#fcc50d" style="fill: var(--color1, #fcc50d)" d="M16 4c-6.628 0-12 5.372-12 12v11.25c0 0.415 0.334 0.75 0.75 0.75h5.75c1.103 0 2-0.897 2-2v-6.5c0-1.103-0.897-2-2-2h-4.25v-1.5c0.001-5.384 4.366-9.75 9.75-9.75s9.75 4.366 9.75 9.75v1.5h-4.25c-1.104 0.001-1.999 0.896-2 2v6.5c0 1.103 0.897 2 2 2h5.75c0.415 0 0.75-0.334 0.75-0.75v-11.25c0-6.628-5.372-12-12-12zM10.25 19.75v6h-4v-6h4zM25.75 25.75h-4v-6h4v6z"></path>
</symbol>
<symbol id="dollar-circle" viewBox="0 0 32 32">
<path fill="#fcc50d" style="fill: var(--color1, #fcc50d)" d="M16 2c-7.731 0-14 6.269-14 14s6.269 14 14 14 14-6.269 14-14-6.269-14-14-14zM16 27.625c-6.418 0-11.625-5.206-11.625-11.625s5.206-11.625 11.625-11.625 11.625 5.206 11.625 11.625-5.206 11.625-11.625 11.625zM17.49 15.275l-0.794-0.184v-4.198c1.188 0.162 1.922 0.906 2.047 1.819 0.016 0.125 0.122 0.216 0.246 0.216h1.403c0.147 0 0.262-0.129 0.25-0.276-0.191-1.946-1.794-3.197-3.934-3.412v-1.022c-0-0.138-0.112-0.25-0.25-0.25 0 0 0 0 0 0h-0.878c0 0 0 0 0 0-0.138 0-0.25 0.112-0.25 0.25v1.032c-2.213 0.215-3.944 1.437-3.944 3.718 0 2.112 1.557 3.131 3.191 3.522l0.772 0.197v4.46c-1.382-0.184-2.157-0.922-2.316-1.916-0.021-0.118-0.123-0.206-0.245-0.206-0.001 0-0.001 0-0.002 0h-1.443c-0 0-0.001 0-0.001 0-0.138 0-0.25 0.112-0.25 0.25 0 0.008 0 0.015 0.001 0.023l-0-0.001c0.141 1.719 1.444 3.3 4.225 3.503v0.982c0 0.137 0.113 0.25 0.25 0.25h0.888c0.137 0 0.25-0.112 0.25-0.253l-0.006-0.991c2.447-0.216 4.197-1.525 4.197-3.874-0.003-2.169-1.381-3.138-3.406-3.638zM15.346 14.769c-0.191-0.053-0.347-0.106-0.499-0.167l0.031 0.011c-1.056-0.382-1.547-0.997-1.547-1.791 0-1.134 0.859-1.781 2.016-1.928v3.875zM16.697 21.156v-4.178c0.097 0.028 0.184 0.050 0.275 0.069 1.478 0.45 1.975 1.074 1.975 2.034 0 1.222-0.919 1.956-2.25 2.074z"></path>
</symbol>
<symbol id="fluent_sim-16-regular" viewBox="0 0 32 32">
<path fill="#fcc50d" style="fill: var(--color1, #fcc50d)" d="M10 19c0-1.657 1.343-3 3-3v0h6c1.657 0 3 1.343 3 3v0 4c0 1.657-1.343 3-3 3v0h-6c-1.657 0-3-1.343-3-3v0-4zM13 18c-0.552 0-1 0.448-1 1v0 4c0 0.552 0.448 1 1 1v0h3v-6h-3zM18 18v6h1c0.552 0 1-0.448 1-1v0-4c0-0.552-0.448-1-1-1v0h-1zM6 7c0-2.761 2.239-5 5-5v0h6.344c1.38 0 2.63 0.56 3.534 1.464l3.658 3.658c0.904 0.905 1.464 2.154 1.464 3.534v14.344c0 2.761-2.239 5-5 5v0h-10c-2.761 0-5-2.239-5-5v0-18zM11 4c-1.657 0-3 1.343-3 3v0 18c0 1.657 1.343 3 3 3v0h10c1.657 0 3-1.343 3-3v0-14.344c-0.001-0.828-0.337-1.578-0.88-2.12l-0-0-3.654-3.658c-0.543-0.543-1.293-0.878-2.121-0.878-0 0-0.001 0-0.001 0h-6.344z"></path>
</symbol>
<symbol id="grommet-icons_money" viewBox="0 0 32 32">
<path fill="none" stroke="#fcc50d" style="stroke: var(--color1, #fcc50d)" stroke-linejoin="miter" stroke-linecap="butt" stroke-miterlimit="4" stroke-width="2.1336" d="M21.333 21.334c0-1.474-4.178-2.667-9.333-2.667M21.333 21.334c0 1.473-4.178 2.666-9.333 2.666s-9.334-1.194-9.334-2.666M21.334 21.334v6.582c0 1.518-4.179 2.75-9.334 2.75s-9.334-1.23-9.334-2.75v-6.582M21.334 21.334c5.098 0 9.333-1.316 9.333-2.667v-13.333M12 18.666c-5.155 0-9.334 1.194-9.334 2.667M12 18.666c-5.891 0-10.667-1.316-10.667-2.666v-6.666M12 6.666c-5.891 0-10.667 1.194-10.667 2.667M1.333 9.334c0.001 1.473 4.776 2.666 10.667 2.666 0 1.35 4.338 2.666 9.436 2.666 5.097 0 9.23-1.316 9.23-2.666M30.666 5.334c0-1.474-4.133-2.667-9.23-2.667s-9.231 1.194-9.231 2.667M30.666 5.334c0 1.473-4.133 2.666-9.23 2.666s-9.231-1.194-9.231-2.666M12.205 5.334v13.554"></path>
</symbol>
<symbol id="check-boxdefault" viewBox="0 0 32 32">
<path fill="none" stroke="#f9f9f9" style="stroke: var(--color3, #f9f9f9)" stroke-linejoin="round" stroke-linecap="round" stroke-miterlimit="4" stroke-width="2.6667" d="M25.333 4h-18.667c-1.473 0-2.667 1.194-2.667 2.667v0 18.667c0 1.473 1.194 2.667 2.667 2.667v0h18.667c1.473 0 2.667-1.194 2.667-2.667v0-18.667c0-1.473-1.194-2.667-2.667-2.667v0z"></path>
</symbol>
<symbol id="check-boxhover" viewBox="0 0 32 32">
<path fill="none" stroke="#f9f9f9" style="stroke: var(--color3, #f9f9f9)" stroke-linejoin="round" stroke-linecap="round" stroke-miterlimit="4" stroke-width="2.6667" d="M12 14.667l4 4 13.333-13.333"></path>
<path fill="none" stroke="#f9f9f9" style="stroke: var(--color3, #f9f9f9)" stroke-linejoin="round" stroke-linecap="round" stroke-miterlimit="4" stroke-width="2.6667" d="M28 16v9.333c0 1.473-1.194 2.667-2.667 2.667v0h-18.667c-1.473 0-2.667-1.194-2.667-2.667v0-18.667c0-1.473 1.194-2.667 2.667-2.667v0h14.667"></path>
</symbol>
<symbol id="chevron-down" viewBox="0 0 32 32">
<path fill="none" stroke="#f9f9f9" style="stroke: var(--color3, #f9f9f9)" stroke-linejoin="round" stroke-linecap="round" stroke-miterlimit="4" stroke-width="2" d="M8 12l8 8 8-8"></path>
</symbol>
<symbol id="chevron-left" viewBox="0 0 32 32">
<path stroke-linejoin="round" stroke-linecap="round" stroke-miterlimit="4" stroke-width="1.6" d="M20 24l-8-8 8-8"></path>
</symbol>
<symbol id="chevron-right" viewBox="0 0 32 32">
<path stroke-linejoin="round" stroke-linecap="round" stroke-miterlimit="4" stroke-width="1.6" d="M12 24l8-8-8-8"></path>
</symbol>
<symbol id="info" viewBox="0 0 32 32">
<path stroke-linejoin="round" stroke-linecap="round" stroke-miterlimit="4" stroke-width="1.6" d="M16 29.334c7.364 0 13.334-5.97 13.334-13.334s-5.97-13.334-13.334-13.334c-7.364 0-13.333 5.97-13.333 13.334s5.969 13.334 13.333 13.334zM16 21.334v-5.334M16 10.666h0.014"></path>
</symbol>
<symbol id="mail" viewBox="0 0 31 32">
<path fill="none" stroke="#fcc50d" style="stroke: var(--color1, #fcc50d)" stroke-linejoin="round" stroke-linecap="round" stroke-miterlimit="4" stroke-width="2.3415" d="M5.206 5.594h20.813c1.431 0 2.601 1.171 2.601 2.601v15.61c0 1.431-1.171 2.602-2.601 2.602h-20.813c-1.435-0.004-2.597-1.167-2.601-2.602v-15.61c0-1.431 1.171-2.601 2.601-2.601z"></path>
<path fill="none" stroke="#fcc50d" style="stroke: var(--color1, #fcc50d)" stroke-linejoin="round" stroke-linecap="round" stroke-miterlimit="4" stroke-width="2.3415" d="M28.621 8.195l-13.008 9.106-13.008-9.106"></path>
</symbol>
<symbol id="map-pin" viewBox="0 0 30 32">
<path fill="none" stroke="#fcc50d" style="stroke: var(--color1, #fcc50d)" stroke-linejoin="round" stroke-linecap="round" stroke-miterlimit="4" stroke-width="2.4" d="M25.9 13.334c0 9.333-11.1 17.333-11.1 17.333s-11.1-8-11.1-17.333c0-3.183 1.17-6.235 3.251-8.486s4.905-3.514 7.849-3.514 5.767 1.264 7.849 3.514c2.082 2.25 3.251 5.302 3.251 8.486z"></path>
<path fill="none" stroke="#fcc50d" style="stroke: var(--color1, #fcc50d)" stroke-linejoin="round" stroke-linecap="round" stroke-miterlimit="4" stroke-width="2.4" d="M14.8 17.334c2.043 0 3.7-1.791 3.7-4s-1.656-4-3.7-4c-2.043 0-3.7 1.79-3.7 4s1.656 4 3.7 4z"></path>
</symbol>
<symbol id="message-square" viewBox="0 0 32 32">
<path fill="none" stroke="#fcc50d" style="stroke: var(--color1, #fcc50d)" stroke-linejoin="round" stroke-linecap="round" stroke-miterlimit="4" stroke-width="3.2" d="M28 20c0 1.473-1.194 2.667-2.667 2.667v0h-16l-5.333 5.333v-21.333c0-1.473 1.194-2.667 2.667-2.667v0h18.667c1.473 0 2.667 1.194 2.667 2.667v0 13.333z"></path>
</symbol>
<symbol id="minus-circle" viewBox="0 0 32 32">
<path fill="none" stroke="#fcc50d" style="stroke: var(--color1, #fcc50d)" stroke-linejoin="round" stroke-linecap="round" stroke-miterlimit="4" stroke-width="3.2" d="M16 29.334c7.364 0 13.334-5.97 13.334-13.334s-5.97-13.334-13.334-13.334c-7.364 0-13.333 5.97-13.333 13.334s5.969 13.334 13.333 13.334zM10.667 16h10.666"></path>
</symbol>
<symbol id="plus-circle" viewBox="0 0 32 32">
<path fill="none" stroke="#fcc50d" style="stroke: var(--color1, #fcc50d)" stroke-linejoin="round" stroke-linecap="round" stroke-miterlimit="4" stroke-width="3.2" d="M16 29.334c7.364 0 13.334-5.97 13.334-13.334s-5.97-13.334-13.334-13.334c-7.364 0-13.333 5.97-13.333 13.334s5.969 13.334 13.333 13.334zM16 10.666v10.667M10.667 16h10.666"></path>
</symbol>
<symbol id="shield" viewBox="0 0 32 32">
<path stroke-linejoin="round" stroke-linecap="round" stroke-miterlimit="4" stroke-width="1.6" d="M16 29.334s10.666-5.334 10.666-13.334v-9.334l-10.666-4-10.667 4v9.334c0 8 10.667 13.334 10.667 13.334z"></path>
</symbol>
<symbol id="user" viewBox="0 0 32 32">
<path fill="#fcc50d" style="fill: var(--color1, #fcc50d)" d="M26.828 23.862c-0.622-1.452-1.472-2.692-2.518-3.734l-0-0c-1.043-1.046-2.283-1.895-3.658-2.489l-0.076-0.029c-0.013-0.006-0.025-0.010-0.038-0.016 1.956-1.421 3.213-3.701 3.213-6.275 0-0.002 0-0.004 0-0.007v0c0-0 0-0.001 0-0.002 0-4.28-3.469-7.749-7.749-7.749-0.001 0-0.001 0-0.002 0h0c-0 0-0.001 0-0.001 0-4.28 0-7.749 3.469-7.749 7.749 0 0.001 0 0.001 0 0.002v-0c0 0.001 0 0.003 0 0.005 0 2.575 1.257 4.856 3.19 6.264l0.022 0.015c-0.012 0.006-0.025 0.010-0.038 0.016-1.453 0.621-2.692 1.471-3.734 2.518l-0 0c-1.045 1.043-1.895 2.283-2.489 3.658l-0.029 0.076c-0.555 1.272-0.891 2.75-0.921 4.304l-0 0.012c-0 0.002-0 0.004-0 0.006 0 0.138 0.112 0.25 0.25 0.25h1.876c0 0 0 0 0 0 0.136 0 0.246-0.109 0.25-0.244v-0c0.061-2.5 1.099-4.747 2.744-6.384l0-0c1.687-1.697 4.024-2.747 6.605-2.747 0.009 0 0.019 0 0.028 0h-0.001c2.506 0 4.858 0.975 6.63 2.747 1.645 1.637 2.683 3.884 2.744 6.373l0 0.011c0.002 0.135 0.112 0.244 0.248 0.244 0.001 0 0.001 0 0.002 0h1.875c0 0 0.001 0 0.001 0 0.138 0 0.25-0.112 0.25-0.25 0-0.002-0-0.005-0-0.007v0c-0.032-1.567-0.368-3.047-0.951-4.395l0.029 0.075zM16 16.688c-1.434 0-2.784-0.559-3.8-1.574-0.973-0.967-1.575-2.307-1.575-3.787 0-0.005 0-0.009 0-0.014v0.001c0-1.434 0.56-2.784 1.576-3.8 0.968-0.974 2.308-1.578 3.789-1.578 0.003 0 0.007 0 0.010 0h-0.001c1.434 0 2.784 0.56 3.8 1.576 0.973 0.967 1.574 2.307 1.574 3.786 0 0.005 0 0.010-0 0.014v-0.001c0 1.434-0.56 2.784-1.575 3.8-0.967 0.973-2.307 1.575-3.787 1.575-0.004 0-0.009 0-0.013 0h0.001z"></path>
</symbol>
<symbol id="work-alt" viewBox="0 0 32 32">
<path fill="#fcc50d" style="fill: var(--color1, #fcc50d)" d="M22.666 9.334c0-2.209-1.791-4-4-4v0h-5.333c-2.209 0-4 1.791-4 4v0h-1.334c-2.209 0-4 1.791-4 4v0 10.666c0 2.209 1.791 4 4 4v0h16c2.209 0 4-1.791 4-4v0-10.666c0-2.209-1.791-4-4-4v0h-1.334zM18.666 8h-5.333c-0.737 0-1.334 0.597-1.334 1.334v0h8c0-0.737-0.597-1.334-1.334-1.334v0zM8 12h16c0.737 0 1.334 0.597 1.334 1.334v0 10.666c0 0.737-0.597 1.334-1.334 1.334v0h-16c-0.737 0-1.334-0.597-1.334-1.334v0-10.666c0-0.737 0.597-1.334 1.334-1.334v0z"></path>
</symbol>
<symbol id="alert-circle" viewBox="0 0 32 32">
<path fill="none" stroke="#ff543e" style="stroke: var(--color1, #ff543e)" stroke-linejoin="round" stroke-linecap="round" stroke-miterlimit="4" stroke-width="2" d="M16 29.334c0.049 0.001 0.106 0.001 0.163 0.001 7.364 0 13.334-5.97 13.334-13.334s-5.97-13.334-13.334-13.334c-0.057 0-0.115 0-0.172 0.001l0.009-0c-7.294 0.092-13.171 6.026-13.171 13.333s5.877 13.241 13.162 13.333l0.009 0zM16 10.666v5.334M16 21.332h0.014"></path>
</symbol>
<symbol id="align-justify" viewBox="0 0 32 32">
<path fill="none" stroke="#f9f9f9" style="stroke: var(--color2, #f9f9f9)" stroke-linejoin="round" stroke-linecap="round" stroke-miterlimit="4" stroke-width="2.4" d="M28 13.333h-24M28 8h-24M28 18.667h-24M28 24h-24"></path>
</symbol>
<symbol id="award" viewBox="0 0 32 32">
<path fill="none" stroke="#f9f9f9" style="stroke: var(--color2, #f9f9f9)" stroke-linejoin="round" stroke-linecap="round" stroke-miterlimit="4" stroke-width="2.6667" d="M16 20c5.155 0 9.333-4.179 9.333-9.333s-4.179-9.333-9.333-9.333v0c-5.155 0-9.333 4.179-9.333 9.333s4.179 9.333 9.333 9.333v0z"></path>
<path fill="none" stroke="#f9f9f9" style="stroke: var(--color2, #f9f9f9)" stroke-linejoin="round" stroke-linecap="round" stroke-miterlimit="4" stroke-width="2.6667" d="M10.947 18.52l-1.613 12.147 6.667-4 6.667 4-1.613-12.16"></path>
</symbol>
<symbol id="eye" viewBox="0 0 32 32">
<path stroke-linejoin="round" stroke-linecap="round" stroke-miterlimit="4" stroke-width="2" d="M1.332 16s5.334-10.666 14.666-10.666c9.334 0 14.668 10.666 14.668 10.666s-5.334 10.666-14.668 10.666c-9.332 0-14.666-10.666-14.666-10.666z"></path>
<path stroke-linejoin="round" stroke-linecap="round" stroke-miterlimit="4" stroke-width="2" d="M16 20c2.209 0 4-1.791 4-4s-1.791-4-4-4v0c-2.209 0-4 1.791-4 4s1.791 4 4 4v0z"></path>
</symbol>
<symbol id="eye-off" viewBox="0 0 32 32">
<path stroke-linejoin="round" stroke-linecap="round" stroke-miterlimit="4" stroke-width="2" d="M23.92 23.92c-2.175 1.671-4.923 2.696-7.909 2.746l-0.012 0c-9.336 0-14.67-10.666-14.67-10.666 1.713-3.152 3.977-5.791 6.688-7.877l0.058-0.043M13.2 5.654c0.833-0.203 1.788-0.32 2.771-0.32 0.010 0 0.020 0 0.030 0h-0.002c9.332 0 14.666 10.666 14.666 10.666-0.81 1.514-1.776 2.94-2.88 4.254M18.826 18.826c-0.733 0.787-1.775 1.278-2.931 1.278-2.209 0-4-1.791-4-4 0-1.156 0.491-2.198 1.275-2.928l0.002-0.002M1.332 1.334l29.334 29.332"></path>
</symbol>
<symbol id="file-text" viewBox="0 0 32 32">
<path fill="none" stroke="#f9f9f9" style="stroke: var(--color2, #f9f9f9)" stroke-linejoin="round" stroke-linecap="round" stroke-miterlimit="4" stroke-width="2.6667" d="M18.667 2.667h-10.667c-1.473 0-2.667 1.194-2.667 2.667v0 21.333c0 1.473 1.194 2.667 2.667 2.667v0h16c1.473 0 2.667-1.194 2.667-2.667v0-16l-8-8z"></path>
<path fill="none" stroke="#f9f9f9" style="stroke: var(--color2, #f9f9f9)" stroke-linejoin="round" stroke-linecap="round" stroke-miterlimit="4" stroke-width="2.6667" d="M18.667 2.667v8h8M21.333 17.333h-10.667M21.333 22.667h-10.667M13.333 12h-2.667"></path>
</symbol>
<symbol id="heart" viewBox="0 0 32 32">
<path d="M27.787 6.146c-1.327-1.328-3.161-2.149-5.187-2.149s-3.86 0.821-5.187 2.149l-1.412 1.414-1.414-1.414c-1.327-1.327-3.161-2.148-5.187-2.148-4.051 0-7.335 3.284-7.335 7.335 0 2.026 0.821 3.859 2.148 5.187l11.786 11.786 11.786-11.786c1.328-1.327 2.149-3.161 2.149-5.187s-0.821-3.859-2.149-5.187v0z"></path>
</symbol>
<symbol id="check-circle" viewBox="0 0 32 32">
<path fill="none" stroke="#4caf50" style="stroke: var(--color4, #4caf50)" stroke-linejoin="round" stroke-linecap="round" stroke-miterlimit="4" stroke-width="2" d="M29.334 14.774v1.226c-0.004 7.361-5.972 13.327-13.334 13.327-7.364 0-13.334-5.97-13.334-13.334s5.97-13.334 13.334-13.334c1.966 0 3.832 0.425 5.512 1.189l-0.084-0.034"></path>
<path fill="none" stroke="#4caf50" style="stroke: var(--color4, #4caf50)" stroke-linejoin="round" stroke-linecap="round" stroke-miterlimit="4" stroke-width="2" d="M29.334 5.334l-13.334 13.346-4-4"></path>
</symbol>
<symbol id="log-out" viewBox="0 0 32 32">
<path fill="none" stroke="#f9f9f9" style="stroke: var(--color2, #f9f9f9)" stroke-linejoin="round" stroke-linecap="round" stroke-miterlimit="4" stroke-width="2.6667" d="M12 28h-5.333c-1.473 0-2.667-1.194-2.667-2.667v0-18.667c0-1.473 1.194-2.667 2.667-2.667v0h5.333M21.333 22.667l6.667-6.667-6.667-6.667M28 16h-16"></path>
</symbol>
<symbol id="settings" viewBox="0 0 32 32">
<path fill="none" stroke="#f9f9f9" style="stroke: var(--color2, #f9f9f9)" stroke-linejoin="round" stroke-linecap="round" stroke-miterlimit="4" stroke-width="2.6667" d="M16 20c2.209 0 4-1.791 4-4s-1.791-4-4-4v0c-2.209 0-4 1.791-4 4s1.791 4 4 4v0z"></path>
<path fill="none" stroke="#f9f9f9" style="stroke: var(--color2, #f9f9f9)" stroke-linejoin="round" stroke-linecap="round" stroke-miterlimit="4" stroke-width="2.6667" d="M25.867 20c-0.118 0.261-0.187 0.567-0.187 0.888 0 0.599 0.239 1.142 0.628 1.539l0.080 0.080c0.484 0.482 0.783 1.15 0.783 1.887s-0.299 1.404-0.783 1.887l-0 0c-0.482 0.484-1.15 0.783-1.887 0.783s-1.404-0.299-1.887-0.783l-0.080-0.080c-0.396-0.388-0.939-0.627-1.538-0.627-0.322 0-0.627 0.069-0.902 0.193l0.014-0.006c-0.788 0.344-1.33 1.115-1.333 2.013v0.227c0 1.473-1.194 2.667-2.667 2.667s-2.667-1.194-2.667-2.667v0-0.12c-0.022-0.922-0.608-1.701-1.425-2.008l-0.015-0.005c-0.261-0.118-0.567-0.187-0.888-0.187-0.599 0-1.142 0.239-1.539 0.628l-0.080 0.080c-0.482 0.484-1.15 0.783-1.887 0.783s-1.404-0.299-1.887-0.783l-0-0c-0.483-0.483-0.782-1.15-0.782-1.887s0.299-1.404 0.782-1.887l0.080-0.080c0.388-0.396 0.627-0.939 0.627-1.538 0-0.322-0.069-0.627-0.193-0.902l0.006 0.014c-0.344-0.788-1.115-1.33-2.013-1.333h-0.227c-1.473 0-2.667-1.194-2.667-2.667s1.194-2.667 2.667-2.667v0h0.12c0.922-0.022 1.701-0.608 2.008-1.425l0.005-0.015c0.118-0.261 0.187-0.567 0.187-0.888 0-0.599-0.239-1.142-0.628-1.539l-0.080-0.080c-0.483-0.483-0.781-1.15-0.781-1.887 0-1.474 1.195-2.668 2.668-2.668 0.737 0 1.404 0.299 1.887 0.781l0.080 0.080c0.396 0.388 0.939 0.627 1.538 0.627 0.322 0 0.627-0.069 0.902-0.193l-0.014 0.006h0.107c0.788-0.344 1.33-1.115 1.333-2.013v-0.227c0-1.473 1.194-2.667 2.667-2.667s2.667 1.194 2.667 2.667v0 0.12c0.004 0.898 0.545 1.669 1.319 2.008l0.014 0.006c0.261 0.118 0.567 0.187 0.888 0.187 0.599 0 1.142-0.239 1.539-0.628l0.080-0.080c0.483-0.485 1.151-0.785 1.889-0.785 1.473 0 2.667 1.194 2.667 2.667 0 0.002 0 0.003 0 0.005v-0c-0 0.737-0.299 1.404-0.783 1.887l-0.080 0.080c-0.388 0.396-0.627 0.939-0.627 1.538 0 0.322 0.069 0.627 0.193 0.902l-0.006-0.014v0.107c0.344 0.788 1.115 1.33 2.013 1.333h0.227c1.473 0 2.667 1.194 2.667 2.667s-1.194 2.667-2.667 2.667v0h-0.12c-0.898 0.004-1.669 0.545-2.008 1.319l-0.006 0.014z"></path>
</symbol>
<symbol id="trash-2" viewBox="0 0 32 32">
<path fill="none" stroke="#f9f9f9" style="stroke: var(--color2, #f9f9f9)" stroke-linejoin="round" stroke-linecap="round" stroke-miterlimit="4" stroke-width="2" d="M4 8h24M25.333 8v18.666c0 1.473-1.194 2.667-2.667 2.667v0h-13.333c-1.473 0-2.666-1.194-2.667-2.666v-18.667M10.666 8v-2.667c0-1.473 1.194-2.667 2.667-2.667h5.333c1.473 0 2.667 1.194 2.667 2.667v0 2.667M13.334 14.666v8M18.666 14.666v8"></path>
</symbol>
<symbol id="phone" viewBox="0 0 31 32">
<path fill="none" stroke="#fcc50d" style="stroke: var(--color1, #fcc50d)" stroke-linejoin="round" stroke-linecap="round" stroke-miterlimit="4" stroke-width="2.3415" d="M28.621 22.4v3.902c0 0.003 0 0.007 0 0.011 0 1.436-1.164 2.601-2.601 2.601-0.083 0-0.165-0.004-0.245-0.011l0.010 0.001c-4.222-0.471-8.035-1.896-11.324-4.054l0.098 0.060c-3.163-2.031-5.774-4.642-7.744-7.704l-0.061-0.101c-2.106-3.206-3.532-7.038-3.984-11.163l-0.010-0.115c-0.007-0.070-0.011-0.152-0.011-0.234 0-1.436 1.164-2.6 2.599-2.601h3.903c0.008-0 0.017-0 0.026-0 1.308 0 2.391 0.966 2.574 2.224l0.002 0.014c0.165 1.249 0.471 2.475 0.911 3.655 0.105 0.272 0.166 0.587 0.166 0.916 0 0.713-0.287 1.36-0.752 1.83l-1.652 1.652c1.885 3.274 4.53 5.92 7.704 7.751l0.101 0.054 1.652-1.652c0.47-0.465 1.116-0.752 1.829-0.752 0.329 0 0.643 0.061 0.933 0.172l-0.018-0.006c1.18 0.44 2.407 0.746 3.656 0.911 1.272 0.185 2.238 1.268 2.238 2.577 0 0.022-0 0.045-0.001 0.067l0-0.003z"></path>
</symbol>
</defs>
</svg>
